HIERARCHY
ROOT Hips
{
	OFFSET 0.000000 71.427986 0.000000
	CHANNELS 6 Xposition Yposition Zposition Xrotation Yrotation Zrotation
	JOINT Pelvis
	{
		OFFSET 0.000000 0.000000 0.000000
		CHANNELS 3 Xrotation Yrotation Zrotation
		JOINT LeftUpLeg
		{
			OFFSET 6.797100 -2.508499 -1.318700
			CHANNELS 3 Xrotation Yrotation Zrotation
			JOINT LeftLeg
			{
				OFFSET 0.069008 -29.241863 0.690200
				CHANNELS 3 Xrotation Yrotation Zrotation
				JOINT LeftFoot
				{
					OFFSET -0.069008 -29.568123 -0.266800
					CHANNELS 3 Xrotation Yrotation Zrotation
					JOINT LeftToeBase
					{
						OFFSET 3.145500 -8.631000 16.059900
						CHANNELS 3 Xrotation Yrotation Zrotation
						End Site
						{
							OFFSET 0.000000 18.501587 0.000000
						}
					}
				}
			}
			JOINT Left_ShortSleeve
			{
				OFFSET 0.265923 -10.480953 1.153800
				CHANNELS 3 Xrotation Yrotation Zrotation
				End Site
				{
					OFFSET 1.725763 19.823879 0.000000
				}
			}
		}
		JOINT RightUpLeg
		{
			OFFSET -6.797100 -2.508499 -1.318700
			CHANNELS 3 Xrotation Yrotation Zrotation
			JOINT RightLeg
			{
				OFFSET -0.082453 -29.241932 0.688000
				CHANNELS 3 Xrotation Yrotation Zrotation
				JOINT RightFoot
				{
					OFFSET 0.082453 -29.568058 -0.264600
					CHANNELS 3 Xrotation Yrotation Zrotation
					JOINT RightToeBase
					{
						OFFSET -3.115300 -8.682800 16.113400
						CHANNELS 3 Xrotation Yrotation Zrotation
						End Site
						{
							OFFSET 0.000000 18.567114 0.000000
						}
					}
				}
			}
			JOINT Right_ShortSleeve
			{
				OFFSET -0.265923 -10.480953 1.153800
				CHANNELS 3 Xrotation Yrotation Zrotation
				End Site
				{
					OFFSET -1.725766 19.823910 0.000000
				}
			}
		}
	}
	JOINT Spine
	{
		OFFSET 0.000000 13.368103 0.470500
		CHANNELS 3 Xrotation Yrotation Zrotation
		JOINT Spine1
		{
			OFFSET 0.147000 13.837402 0.538800
			CHANNELS 3 Xrotation Yrotation Zrotation
			JOINT Spine2
			{
				OFFSET 0.168000 16.242897 -1.435500
				CHANNELS 3 Xrotation Yrotation Zrotation
				JOINT Neck
				{
					OFFSET 0.217200 18.631500 -1.679100
					CHANNELS 3 Xrotation Yrotation Zrotation
					JOINT Head
					{
						OFFSET 0.000000 6.599396 1.385900
						CHANNELS 3 Xrotation Yrotation Zrotation
						JOINT Hat
						{
							OFFSET -0.532200 27.220596 -10.096100
							CHANNELS 3 Xrotation Yrotation Zrotation
							End Site
							{
								OFFSET 0.000000 22.029861 0.000000
							}
						}
						JOINT HairD
						{
							OFFSET -10.777400 17.437393 -1.325900
							CHANNELS 3 Xrotation Yrotation Zrotation
							JOINT HairD1
							{
								OFFSET -3.290299 -11.051193 1.062200
								CHANNELS 3 Xrotation Yrotation Zrotation
								End Site
								{
									OFFSET 0.000000 11.579437 0.000000
								}
							}
						}
						JOINT HairB
						{
							OFFSET -10.777400 17.437393 1.467900
							CHANNELS 3 Xrotation Yrotation Zrotation
							JOINT HairB1
							{
								OFFSET -1.561200 -12.956299 3.590200
								CHANNELS 3 Xrotation Yrotation Zrotation
								End Site
								{
									OFFSET 0.000000 13.534866 0.000000
								}
							}
						}
						JOINT HairA
						{
							OFFSET 9.713100 17.437393 1.467900
							CHANNELS 3 Xrotation Yrotation Zrotation
							JOINT HairA1
							{
								OFFSET 1.561200 -12.956299 3.590200
								CHANNELS 3 Xrotation Yrotation Zrotation
								End Site
								{
									OFFSET 0.000000 13.534866 0.000000
								}
							}
						}
						JOINT HairC
						{
							OFFSET 9.713100 17.437393 -1.325900
							CHANNELS 3 Xrotation Yrotation Zrotation
							JOINT HairC1
							{
								OFFSET 3.290300 -11.051193 1.062200
								CHANNELS 3 Xrotation Yrotation Zrotation
								End Site
								{
									OFFSET 0.000000 11.579437 0.000000
								}
							}
						}
					}
				}
				JOINT LeftShoulder
				{
					OFFSET 5.101800 15.108002 -2.763700
					CHANNELS 3 Xrotation Yrotation Zrotation
					JOINT LeftArm
					{
						OFFSET 9.825497 2.506317 -1.597400
						CHANNELS 3 Xrotation Yrotation Zrotation
						JOINT LeftForeArm
						{
							OFFSET 21.966244 0.000000 0.000000
							CHANNELS 3 Xrotation Yrotation Zrotation
							JOINT LeftHand
							{
								OFFSET 33.879036 0.000000 0.000000
								CHANNELS 3 Xrotation Yrotation Zrotation
								JOINT LeftHandThumb1
								{
									OFFSET 6.715286 -2.359680 3.363841
									CHANNELS 3 Xrotation Yrotation Zrotation
									JOINT LeftHandThumb2
									{
										OFFSET 2.507072 -1.447464 1.447461
										CHANNELS 3 Xrotation Yrotation Zrotation
										JOINT LeftHandThumb3
										{
											OFFSET 2.898338 -1.673355 1.673357
											CHANNELS 3 Xrotation Yrotation Zrotation
											End Site
											{
												OFFSET -0.295959 3.727692 -0.131651
											}
										}
									}
								}
								JOINT LeftHandIndex1
								{
									OFFSET 14.190811 -0.254547 3.840278
									CHANNELS 3 Xrotation Yrotation Zrotation
									JOINT LeftHandIndex2
									{
										OFFSET 3.551727 0.000000 -0.000000
										CHANNELS 3 Xrotation Yrotation Zrotation
										JOINT LeftHandIndex3
										{
											OFFSET 2.894196 0.000000 0.000000
											CHANNELS 3 Xrotation Yrotation Zrotation
											End Site
											{
												OFFSET -1.000603 2.690872 0.366626
											}
										}
									}
								}
								JOINT LeftHandMiddle1
								{
									OFFSET 13.776489 0.000000 0.000000
									CHANNELS 3 Xrotation Yrotation Zrotation
									JOINT LeftHandMiddle2
									{
										OFFSET 3.438232 0.000000 0.000000
										CHANNELS 3 Xrotation Yrotation Zrotation
										JOINT LeftHandMiddle3
										{
											OFFSET 3.691551 0.000000 0.000000
											CHANNELS 3 Xrotation Yrotation Zrotation
											End Site
											{
												OFFSET -1.082298 3.499527 0.457670
											}
										}
									}
								}
								JOINT LeftHandRing1
								{
									OFFSET 13.966164 -0.268127 -3.067488
									CHANNELS 3 Xrotation Yrotation Zrotation
									JOINT LeftHandRing2
									{
										OFFSET 3.162567 0.000000 0.000000
										CHANNELS 3 Xrotation Yrotation Zrotation
										JOINT LeftHandRing3
										{
											OFFSET 3.324348 0.000000 0.000000
											CHANNELS 3 Xrotation Yrotation Zrotation
											End Site
											{
												OFFSET -0.861900 3.184998 0.405154
											}
										}
									}
								}
								JOINT LeftHandPinky1
								{
									OFFSET 13.131393 -0.168503 -5.746925
									CHANNELS 3 Xrotation Yrotation Zrotation
									JOINT LeftHandPinky2
									{
										OFFSET 2.849182 0.000000 0.000000
										CHANNELS 3 Xrotation Yrotation Zrotation
										JOINT LeftHandPinky3
										{
											OFFSET 2.805038 0.000000 0.000000
											CHANNELS 3 Xrotation Yrotation Zrotation
											End Site
											{
												OFFSET -0.882500 2.642609 0.325652
											}
										}
									}
								}
							}
							JOINT Left_Sleeve
							{
								OFFSET 6.592125 -0.646545 0.805568
								CHANNELS 3 Xrotation Yrotation Zrotation
								End Site
								{
									OFFSET -0.000179 20.275787 -0.000000
								}
							}
						}
					}
				}
				JOINT RightShoulder
				{
					OFFSET -5.731700 15.108002 -2.763700
					CHANNELS 3 Xrotation Yrotation Zrotation
					JOINT RightArm
					{
						OFFSET -9.825497 2.506317 -1.597400
						CHANNELS 3 Xrotation Yrotation Zrotation
						JOINT RightForeArm
						{
							OFFSET -21.966242 0.000000 0.000000
							CHANNELS 3 Xrotation Yrotation Zrotation
							JOINT RightHand
							{
								OFFSET -33.879032 0.000000 0.000000
								CHANNELS 3 Xrotation Yrotation Zrotation
								JOINT RightHandThumb1
								{
									OFFSET -6.715286 -2.359680 3.363841
									CHANNELS 3 Xrotation Yrotation Zrotation
									JOINT RightHandThumb2
									{
										OFFSET -2.507072 -1.447464 1.447461
										CHANNELS 3 Xrotation Yrotation Zrotation
										JOINT RightHandThumb3
										{
											OFFSET -2.898338 -1.673355 1.673357
											CHANNELS 3 Xrotation Yrotation Zrotation
											End Site
											{
												OFFSET 0.295959 3.727692 -0.131651
											}
										}
									}
								}
								JOINT RightHandIndex1
								{
									OFFSET -14.190811 -0.254547 3.840278
									CHANNELS 3 Xrotation Yrotation Zrotation
									JOINT RightHandIndex2
									{
										OFFSET -3.551727 0.000000 -0.000000
										CHANNELS 3 Xrotation Yrotation Zrotation
										JOINT RightHandIndex3
										{
											OFFSET -2.894196 0.000000 0.000000
											CHANNELS 3 Xrotation Yrotation Zrotation
											End Site
											{
												OFFSET 1.000603 2.690872 0.366626
											}
										}
									}
								}
								JOINT RightHandMiddle1
								{
									OFFSET -13.776489 0.000000 0.000000
									CHANNELS 3 Xrotation Yrotation Zrotation
									JOINT RightHandMiddle2
									{
										OFFSET -3.438232 0.000000 0.000000
										CHANNELS 3 Xrotation Yrotation Zrotation
										JOINT RightHandMiddle3
										{
											OFFSET -3.691551 0.000000 0.000000
											CHANNELS 3 Xrotation Yrotation Zrotation
											End Site
											{
												OFFSET 1.082298 3.499527 0.457670
											}
										}
									}
								}
								JOINT RightHandRing1
								{
									OFFSET -13.966164 -0.268127 -3.067488
									CHANNELS 3 Xrotation Yrotation Zrotation
									JOINT RightHandRing2
									{
										OFFSET -3.162567 0.000000 0.000000
										CHANNELS 3 Xrotation Yrotation Zrotation
										JOINT RightHandRing3
										{
											OFFSET -3.324348 0.000000 0.000000
											CHANNELS 3 Xrotation Yrotation Zrotation
											End Site
											{
												OFFSET 0.861900 3.184998 0.405154
											}
										}
									}
								}
								JOINT RightHandPinky1
								{
									OFFSET -13.131393 -0.168503 -5.746925
									CHANNELS 3 Xrotation Yrotation Zrotation
									JOINT RightHandPinky2
									{
										OFFSET -2.849182 0.000000 0.000000
										CHANNELS 3 Xrotation Yrotation Zrotation
										JOINT RightHandPinky3
										{
											OFFSET -2.805038 0.000000 0.000000
											CHANNELS 3 Xrotation Yrotation Zrotation
											End Site
											{
												OFFSET 0.882500 2.642609 0.325652
											}
										}
									}
								}
							}
							JOINT Right_Sleeve
							{
								OFFSET -6.592125 -0.646545 0.805568
								CHANNELS 3 Xrotation Yrotation Zrotation
								End Site
								{
									OFFSET 0.000179 20.275787 -0.000000
								}
							}
						}
					}
				}
				JOINT Bind_Right_JacketString
				{
					OFFSET -3.534800 11.969597 7.200700
					CHANNELS 3 Xrotation Yrotation Zrotation
					JOINT Bind_Right_JacketString1
					{
						OFFSET -0.319900 -6.102600 2.794100
						CHANNELS 3 Xrotation Yrotation Zrotation
						End Site
						{
							OFFSET 0.000000 6.719452 0.000000
						}
					}
				}
				JOINT Bind_Left_JacketString
				{
					OFFSET 2.904800 11.969597 7.200700
					CHANNELS 3 Xrotation Yrotation Zrotation
					JOINT Bind_Left_JacketString1
					{
						OFFSET 0.364800 -5.904503 3.186800
						CHANNELS 3 Xrotation Yrotation Zrotation
						End Site
						{
							OFFSET 0.000000 6.719513 0.000000
						}
					}
				}
				JOINT HairE
				{
					OFFSET 5.915200 17.612701 -11.592200
					CHANNELS 3 Xrotation Yrotation Zrotation
					JOINT HairE1
					{
						OFFSET 0.289200 -7.171898 -1.284500
						CHANNELS 3 Xrotation Yrotation Zrotation
						End Site
						{
							OFFSET 0.000000 7.291756 0.000000
						}
					}
				}
				JOINT HairF
				{
					OFFSET -0.864800 17.612701 -11.592200
					CHANNELS 3 Xrotation Yrotation Zrotation
					JOINT HairF1
					{
						OFFSET 0.000000 -14.087097 -2.127501
						CHANNELS 3 Xrotation Yrotation Zrotation
						End Site
						{
							OFFSET 0.000000 14.246841 0.000000
						}
					}
				}
				JOINT HairG
				{
					OFFSET -8.087700 17.612701 -11.592200
					CHANNELS 3 Xrotation Yrotation Zrotation
					JOINT HairG1
					{
						OFFSET -0.293600 -6.081398 -0.910100
						CHANNELS 3 Xrotation Yrotation Zrotation
						End Site
						{
							OFFSET 0.000000 6.156120 0.000000
						}
					}
				}
			}
		}
	}
	JOINT Pouch
	{
		OFFSET 0.000000 4.394501 10.847300
		CHANNELS 3 Xrotation Yrotation Zrotation
		End Site
		{
			OFFSET 0.000000 21.880577 0.000000
		}
	}
	JOINT Bag
	{
		OFFSET -13.229000 4.813004 -0.593300
		CHANNELS 3 Xrotation Yrotation Zrotation
		End Site
		{
			OFFSET 0.000000 21.880577 0.000000
		}
	}
	JOINT OccupyGuyFacialAnim_Joint
	{
		OFFSET 1.000000 -70.206398 -1.655000
		CHANNELS 3 Xrotation Yrotation Zrotation
		End Site
		{
			OFFSET 0.000000 21.880577 0.000000
		}
	}
}
MOTION
Frames: 4
Frame Time: 0.033333
-0.305381 54.036003 -0.189304 -7.601382 -2.456630 -3.834590 0.000001 0.000000 -0.000000 -58.109788 -0.182987 10.588509 59.224830 -2.849827 3.691575 5.797819 0.094390 -5.051225 -0.000000 -0.000000 -0.000000 -0.000001 0.000000 -0.000000 -56.423032 -2.936988 -8.664931 59.898894 -1.087429 1.735244 2.625928 -0.101869 2.784848 0.000000 0.000000 -0.000000 -0.000000 0.000000 0.000001 20.087158 1.156118 3.547846 5.378111 0.847249 1.342414 5.396461 0.867649 1.241853 2.161634 0.399467 2.176364 -8.565641 6.825700 -7.104191 0.000001 0.000000 -0.000000 0.000001 0.000000 -0.000000 0.000001 0.000000 -0.000000 0.000001 0.000000 -0.000000 -0.000001 -0.000000 -0.000000 0.000001 0.000000 -0.000000 -0.000001 -0.000000 -0.000000 0.000001 0.000000 -0.000000 0.000001 0.000000 -0.000000 0.481708 -6.352317 -13.889217 -14.347106 -35.131269 -48.536123 0.000012 -44.986341 0.000013 18.450081 4.888142 47.653519 -7.638489 -2.868402 -5.485813 5.969306 16.569860 -0.900631 0.000001 -0.000000 -0.000001 -0.511054 0.731905 -27.860854 0.420511 2.373654 -20.089526 -0.000001 -0.000001 0.000001 -0.289667 0.058581 -16.877993 0.836017 3.293471 -28.479001 0.000004 0.000001 0.000001 -0.532702 -0.387050 -19.184839 0.253091 1.853238 -15.552134 -0.000001 0.000003 -0.000002 1.012558 6.011331 -10.397214 0.646387 -1.157541 -25.305168 -0.000001 -0.000001 0.000003 0.000000 0.000000 0.000003 0.552751 3.179114 12.605550 -25.340156 32.540022 58.396260 0.000028 45.579867 -0.000031 43.675494 -7.955383 -37.247719 -7.831846 -8.916862 -0.264972 6.953253 -14.810710 0.202133 0.000004 0.000000 -0.000000 -0.361199 -0.290822 20.583682 1.499679 -4.318251 38.288155 -0.000000 -0.000000 0.000000 -0.273887 -0.368894 19.079298 1.022125 -3.634019 31.409253 0.000002 -0.000000 -0.000003 1.919306 -7.071235 17.498794 0.888795 -3.406498 29.238233 0.000000 -0.000002 0.000001 0.985200 -7.111009 8.141315 1.562818 -4.396842 39.119000 0.000002 0.000000 -0.000001 0.000003 -0.000000 0.000003 -0.000000 -0.000000 -0.000000 -0.000000 -0.000000 0.000000 -0.000000 -0.000000 0.000000 -0.000000 -0.000000 0.000000 -0.000000 -0.000000 -0.000000 -0.000000 -0.000000 -0.000000 -0.000000 -0.000000 0.000000 -0.000000 -0.000000 0.000000 -0.000000 -0.000000 -0.000000 -0.000000 -0.000000 -0.000000 0.000001 0.000000 -0.000000 0.000001 0.000000 -0.000000 0.000001 0.000000 -0.000000 
-0.294604 54.040344 -0.188297 -7.616166 -2.452154 -3.842515 -0.000001 -0.000000 0.000000 -58.096237 -0.163274 10.599801 59.224400 -2.869416 3.678858 5.794744 0.096205 -5.019836 -0.000000 -0.000000 -0.000000 -0.000000 0.000000 -0.000000 -56.393412 -2.930044 -8.657033 59.881327 -1.092560 1.719027 2.630927 -0.101182 2.813268 0.000000 0.000000 0.000000 -0.000002 -0.000000 -0.000001 20.109315 1.161946 3.561020 5.387417 0.848158 1.346605 5.405755 0.868233 1.246059 2.208742 0.417582 2.116970 -8.339834 6.958582 -7.431378 0.000000 -0.000000 0.000000 0.000000 -0.000000 0.000000 0.000000 -0.000000 0.000000 0.000000 -0.000000 -0.000000 0.000000 -0.000000 0.000000 0.000000 -0.000000 -0.000000 0.000000 -0.000000 0.000000 0.000000 -0.000000 0.000000 0.000000 -0.000000 0.000000 0.480541 -6.367909 -13.906462 -14.298094 -35.159813 -48.489914 -0.000009 -45.095528 -0.000021 18.445775 4.993443 47.647400 -7.641835 -2.870203 -5.493910 5.965126 16.554338 -0.897366 0.000002 -0.000001 -0.000001 -0.514961 0.727462 -27.890012 0.424170 2.383677 -20.177813 0.000001 0.000000 -0.000000 -0.291386 0.054296 -16.890114 0.835927 3.293284 -28.477601 -0.000001 0.000001 -0.000003 -0.536888 -0.397205 -19.198975 0.253310 1.853977 -15.558664 -0.000001 0.000000 0.000000 1.009376 6.007016 -10.369529 0.647215 -1.155824 -25.321043 -0.000000 -0.000000 0.000003 0.000002 0.000002 -0.000001 0.552941 3.172668 12.592865 -25.273604 32.587150 58.288192 -0.000003 45.583924 0.000006 43.515859 -7.945185 -37.277141 -7.837984 -8.909715 -0.256019 6.951773 -14.806880 0.201851 -0.000000 -0.000001 -0.000001 -0.365287 -0.259845 20.411179 1.499505 -4.318054 38.285867 -0.000001 -0.000000 0.000000 -0.271292 -0.369865 19.017434 1.022326 -3.634363 31.412487 0.000001 0.000001 -0.000002 1.927587 -7.087291 17.530860 0.888007 -3.405095 29.224918 0.000001 -0.000001 -0.000001 0.987742 -7.098978 8.182431 1.554541 -4.386664 39.010905 -0.000000 0.000001 -0.000003 -0.000001 -0.000002 -0.000001 0.000000 0.000000 0.000000 -0.000002 0.000000 0.000000 0.000000 0.000000 0.000000 0.000000 0.000000 0.000000 0.000000 0.000000 0.000000 -0.000002 0.000000 0.000000 0.000000 0.000000 0.000000 0.000000 0.000000 0.000000 0.000000 0.000000 0.000000 -0.000002 0.000000 0.000000 -0.000001 -0.000000 0.000000 -0.000001 -0.000000 0.000000 -0.000001 -0.000000 0.000000 
-0.290755 54.042374 -0.189201 -7.628729 -2.453970 -3.821224 -0.000000 -0.000000 -0.000000 -58.077269 -0.134365 10.598328 59.212809 -2.878912 3.663619 5.798391 0.096879 -5.002176 -0.000000 -0.000000 -0.000000 0.000001 0.000000 -0.000000 -56.383577 -2.916194 -8.666164 59.880494 -1.082850 1.702130 2.632092 -0.100785 2.825054 0.000000 -0.000000 0.000000 0.000003 -0.000000 -0.000001 20.125180 1.167291 3.561949 5.393759 0.849928 1.346853 5.412102 0.869895 1.246324 2.246807 0.431366 2.055187 -8.183106 7.054975 -7.717537 0.000001 -0.000000 0.000000 0.000001 -0.000000 0.000000 0.000001 -0.000000 0.000000 0.000001 -0.000000 0.000000 -0.000001 -0.000000 0.000000 0.000001 -0.000000 0.000000 -0.000001 -0.000000 0.000000 0.000001 -0.000000 0.000000 0.000001 -0.000000 0.000000 0.479055 -6.386836 -13.934422 -14.283901 -35.166175 -48.453806 0.000008 -45.115295 0.000007 18.465555 5.003644 47.641389 -7.658645 -2.886176 -5.507627 5.956936 16.524517 -0.891118 0.000002 -0.000000 -0.000001 -0.516771 0.727035 -27.918595 0.428834 2.396274 -20.289490 0.000002 -0.000001 0.000003 -0.291935 0.052269 -16.888408 0.835630 3.292768 -28.472520 0.000000 -0.000000 0.000001 -0.541254 -0.408627 -19.207887 0.253329 1.854075 -15.559372 -0.000001 -0.000000 0.000003 1.015849 6.019119 -10.418095 0.646863 -1.156542 -25.314452 -0.000002 -0.000001 -0.000001 0.000003 0.000003 0.000002 0.553135 3.165663 12.583174 -25.225729 32.631936 58.219440 0.000012 45.611050 -0.000022 43.429850 -7.965753 -37.274282 -7.811386 -8.946458 -0.226030 6.955106 -14.815464 0.202505 -0.000002 -0.000001 -0.000000 -0.367188 -0.225664 20.163181 1.508394 -4.329245 38.403592 -0.000001 0.000001 -0.000007 -0.268042 -0.368919 18.919749 1.025219 -3.639092 31.458243 0.000002 0.000001 -0.000004 1.939065 -7.108377 17.578989 0.891151 -3.410725 29.277958 0.000002 0.000000 -0.000002 0.985632 -7.080890 8.189062 1.540718 -4.369619 38.829687 0.000001 0.000001 -0.000001 0.000000 0.000000 0.000001 -0.000001 0.000000 -0.000000 -0.000001 0.000000 0.000000 -0.000001 0.000000 0.000000 -0.000001 0.000000 0.000000 -0.000001 0.000000 -0.000000 -0.000001 0.000000 -0.000000 -0.000001 0.000000 0.000000 -0.000001 0.000000 0.000000 -0.000001 0.000000 -0.000000 -0.000001 0.000000 -0.000000 -0.000000 -0.000000 -0.000000 -0.000000 -0.000000 -0.000000 -0.000000 -0.000000 -0.000000 
-0.297058 54.043312 -0.189928 -7.641585 -2.453627 -3.773361 -0.000000 -0.000000 -0.000000 -58.050468 -0.092962 10.593376 59.189982 -2.894651 3.638274 5.807409 0.096889 -4.989770 -0.000000 0.000000 0.000000 0.000002 0.000000 -0.000000 -56.388276 -2.899144 -8.688771 59.900978 -1.066675 1.679558 2.622417 -0.100752 2.823777 0.000000 0.000001 0.000000 -0.000001 0.000000 -0.000000 20.127622 1.162975 3.538495 5.393847 0.849456 1.335822 5.412211 0.869102 1.235302 2.291771 0.440365 1.991833 -8.017635 7.114258 -7.973543 0.000001 -0.000000 0.000000 0.000001 -0.000000 0.000000 0.000001 -0.000000 0.000000 0.000001 -0.000000 -0.000000 -0.000001 -0.000000 0.000000 0.000001 -0.000000 -0.000000 -0.000001 -0.000000 0.000000 0.000001 -0.000000 0.000000 0.000001 -0.000000 0.000000 0.477432 -6.409644 -13.964434 -14.256265 -35.154331 -48.388349 -0.000009 -45.083613 -0.000003 18.504072 4.951663 47.639808 -7.638744 -2.854435 -5.532002 5.959247 16.532919 -0.892888 -0.000001 0.000003 0.000001 -0.516451 0.726862 -27.911206 0.433320 2.408396 -20.396704 0.000001 0.000000 -0.000000 -0.289126 0.059612 -16.871416 0.835082 3.291738 -28.462978 0.000001 0.000000 0.000001 -0.543268 -0.413072 -19.217422 0.252937 1.852664 -15.547273 -0.000001 0.000001 -0.000002 1.042705 6.069817 -10.616528 0.643884 -1.162837 -25.256685 -0.000001 -0.000000 -0.000001 0.000003 -0.000002 0.000002 0.553182 3.162683 12.589569 -25.209994 32.638438 58.220655 -0.000034 45.621586 0.000046 43.455634 -7.974418 -37.229958 -7.705704 -9.087779 -0.173736 6.973413 -14.862447 0.206142 0.000000 0.000002 -0.000000 -0.361039 -0.223306 19.997583 1.540980 -4.369905 38.833444 0.000002 0.000000 0.000002 -0.271824 -0.347500 18.825427 1.031512 -3.649373 31.557100 -0.000001 -0.000001 0.000004 1.935248 -7.101985 17.560917 0.895992 -3.419322 29.359097 0.000001 -0.000001 -0.000000 0.968589 -7.052035 8.071571 1.521288 -4.345405 38.574019 0.000001 0.000002 -0.000004 0.000000 0.000000 -0.000001 -0.000001 0.000000 -0.000000 -0.000001 0.000000 0.000000 -0.000001 0.000000 -0.000000 -0.000001 0.000000 -0.000000 -0.000001 0.000000 -0.000000 -0.000001 0.000000 -0.000000 -0.000001 0.000000 -0.000000 -0.000001 0.000000 -0.000000 -0.000001 0.000000 -0.000000 -0.000001 0.000000 -0.000000 -0.000000 -0.000000 -0.000000 -0.000000 -0.000000 -0.000000 -0.000000 -0.000000 -0.000000 
